<svg id="Capa_1" enable-background="new 0 0 512 512" height="512" viewBox="0 0 512 512" width="512" xmlns="http://www.w3.org/2000/svg" xmlns:xlink="http://www.w3.org/1999/xlink"><linearGradient id="SVGID_1_" gradientUnits="userSpaceOnUse" x1="256" x2="256" y1="512" y2="0"><stop offset="0" stop-color="#fd5900"/><stop offset="1" stop-color="#ffde00"/></linearGradient><g><g><path d="m135 271c3.816 0 7.521-.481 11.061-1.379-4.15 13.358-11.495 25.6-21.667 35.773-5.858 5.858-5.858 15.355 0 21.213 5.857 5.857 15.355 5.858 21.213 0 22.179-22.179 34.393-51.668 34.393-83.033v-17.574c0-24.813-20.187-45-45-45s-45 20.187-45 45 20.187 45 45 45zm0-60c8.271 0 15 6.729 15 15s-6.729 15-15 15-15-6.729-15-15 6.729-15 15-15zm120 60c3.816 0 7.521-.481 11.061-1.379-4.15 13.358-11.495 25.6-21.667 35.773-5.858 5.858-5.858 15.355 0 21.213 5.857 5.857 15.355 5.858 21.213 0 22.179-22.179 34.393-51.668 34.393-83.033v-17.574c0-24.813-20.187-45-45-45s-45 20.187-45 45 20.187 45 45 45zm0-60c8.271 0 15 6.729 15 15s-6.729 15-15 15-15-6.729-15-15 6.729-15 15-15zm60 211h-60c-8.284 0-15 6.716-15 15s6.716 15 15 15h60c8.284 0 15-6.716 15-15s-6.716-15-15-15zm-240-30h60c8.284 0 15-6.716 15-15s-6.716-15-15-15h-60c-8.284 0-15 6.716-15 15s6.716 15 15 15zm392-392h-242c-6.067 0-11.537 3.655-13.858 9.26s-1.038 12.057 3.252 16.347c16.273 16.273 25.606 38.759 25.606 61.692v33.701h-195c-24.813 0-45 20.187-45 45v301c0 24.813 20.187 45 45 45h390c6.782 0 12.721-4.551 14.484-11.1 1.764-6.549-1.087-13.466-6.952-16.872-32.403-18.814-52.532-53.847-52.532-91.427v-121.601h77c24.813 0 45-20.187 45-45v-181c0-24.813-20.187-45-45-45zm-73.496 482h-348.504c-8.271 0-15-6.729-15-15v-301c0-8.271 6.729-15 15-15h300c8.271 0 15 6.729 15 15v226.601c0 23.808 6.24 47.245 18.046 67.777 4.438 7.718 9.623 14.957 15.458 21.622zm88.496-256c0 8.271-6.729 15-15 15h-77v-75c0-24.813-20.187-45-45-45h-75v-33.701c0-20.072-5.313-39.884-15.054-57.299h212.054c8.271 0 15 6.729 15 15zm-167 136h-120c-8.284 0-15 6.716-15 15s6.716 15 15 15h120c8.284 0 15-6.716 15-15s-6.716-15-15-15zm-120 60h-120c-8.284 0-15 6.716-15 15s6.716 15 15 15h120c8.284 0 15-6.716 15-15s-6.716-15-15-15z" fill="url(#SVGID_1_)"/></g></g></svg>